<?xml version="1.0" encoding="UTF-8"?>
<svg width="52px" height="32px" viewBox="0 0 52 32" version="1.1" xmlns="http://www.w3.org/2000/svg" xmlns:xlink="http://www.w3.org/1999/xlink">
    <!-- Generator: Sketch 49.3 (51167) - http://www.bohemiancoding.com/sketch -->
    <title>visa</title>
    <desc>Created with Sketch.</desc>
    <defs></defs>
    <g id="Page-1" stroke="none" stroke-width="1" fill="none" fill-rule="evenodd">
        <g id="visa" fill-rule="nonzero">
            <rect id="Rectangle-20" fill="#F6F6F6" x="0" y="2.88" width="51.2" height="25.6"></rect>
            <path d="M47.36,3.23669398e-07 C44.8,5.65262682e-07 17.69625,-5.13018794e-07 2.56,3.23669398e-07 C1.28,3.94424102e-07 7.38964458e-15,1.28000032 7.10542736e-14,2.56000032 L7.10542736e-14,6.40000032 L51.2,6.40000032 C51.2,6.40000032 51.1999994,12.3430212 51.2,3.84000032 C51.2,1.28000032 49.92,3.23669398e-07 47.36,3.23669398e-07 Z" id="Rectangle-1" fill="#265697"></path>
            <path d="M0,25.6 C0,25.6 0,25.6 0,28.1600002 C-1.48108758e-07,30.72 1.28,31.9999999 3.84,31.9999999 C18.1194271,31.9999999 44.8,32 47.36,31.9999999 C49.92,31.9999999 51.2,30.72 51.2,28.1600002 L51.2,25.6 L0,25.6 Z" id="Rectangle-1" fill="#D97B16"></path>
            <path d="M35.7166544,9.53027469 C34.99904,9.2551945 33.8746957,8.96 32.4704874,8.96 C28.891646,8.96 26.3706957,10.8016363 26.3491782,13.440908 C26.3290182,15.3919243 28.1489164,16.4802459 29.522783,17.1297986 C30.9326254,17.795304 31.4065551,18.2197848 31.3997673,18.8140579 C31.3908751,19.7241947 30.2739297,20.1400055 29.2329406,20.1400055 C27.7832533,20.1400055 27.0131006,19.9342156 25.8235927,19.4272662 L25.3568582,19.2114885 L24.848514,22.2510345 C25.6944194,22.6300154 27.2588218,22.9584331 28.8830933,22.9754262 C32.6903466,22.9754262 35.1619491,21.1549446 35.1900509,18.3365171 C35.2036944,16.7918786 34.2386618,15.6164414 32.1491491,14.6474183 C30.8831418,14.0192977 30.1078303,13.6001576 30.1160436,12.96413 C30.1160436,12.3997509 30.7722957,11.796253 32.1902157,11.796253 C33.3746326,11.7774565 34.2325526,12.0413699 34.9010909,12.31645 L35.2256195,12.4731334 L35.7166544,9.53027469" id="Shape" fill="#265697"></path>
            <path d="M45.0043056,9.20893162 L42.2055952,9.20893162 C41.3386474,9.20893162 40.6897939,9.4507192 40.3090618,10.3349155 L34.9299395,22.7782368 L38.7332557,22.7782368 C38.7332557,22.7782368 39.3550934,21.1051444 39.4957382,20.737816 C39.91136,20.737816 43.6061382,20.7436422 44.134303,20.7436422 C44.2427056,21.2189636 44.5749722,22.7782368 44.5749722,22.7782368 L47.9357866,22.7782368 L45.0043056,9.20893162 Z M40.5380848,17.960588 C40.8376339,17.178281 41.98112,14.1649529 41.98112,14.1649529 C41.9597382,14.2010892 42.2784291,13.3788311 42.4613626,12.869038 L42.7061334,14.0396895 C42.7061334,14.0396895 43.3996509,17.2807945 43.54464,17.9604492 L40.5380848,17.960588 Z" id="Shape" fill="#265697"></path>
            <polygon id="Shape" fill="#265697" points="18.9599612 22.7739365 21.2244654 9.19596138 24.8464097 9.19596138 22.5803443 22.7739365"></polygon>
            <path d="M15.9221818,9.20587981 L12.376194,18.4650404 L11.9983806,16.5833836 C11.3382594,14.4143007 9.28153213,12.0641892 6.98220605,10.8876422 L10.2245721,22.7622148 L14.0566691,22.7577758 L19.7587588,9.20587981 L15.9221818,9.20587981" id="Shape" fill="#265697"></path>
            <path d="M9.08658426,9.1974873 L3.24622544,9.1974873 L3.2,9.47998896 C7.74373818,10.603892 10.7502933,13.3199448 11.9983127,16.5833836 L10.7283685,10.3437935 C10.50912,9.48401181 9.87323152,9.22745066 9.08658426,9.1974873" id="Shape" fill="#D97B16"></path>
        </g>
    </g>
</svg>