<?xml version="1.0" encoding="UTF-8"?>
<svg width="52px" height="32px" viewBox="0 0 52 32" version="1.1" xmlns="http://www.w3.org/2000/svg" xmlns:xlink="http://www.w3.org/1999/xlink">
    <!-- Generator: Sketch 49.3 (51167) - http://www.bohemiancoding.com/sketch -->
    <title>Unknown</title>
    <desc>Created with Sketch.</desc>
    <defs></defs>
    <g id="Page-1" stroke="none" stroke-width="1" fill="none" fill-rule="evenodd">
        <g id="Unknown" fill-rule="nonzero">
            <path d="M47.36,3.23669398e-07 C44.8,5.65262682e-07 17.69625,-5.13018794e-07 2.56,3.23669398e-07 C1.28,3.94424102e-07 0,1.28000032 0,2.56000032 L0,28.1600003 C-1.4816e-07,30.7200003 1.28,32.0000003 3.84,32.0000003 C18.1194271,32.0000003 44.8,32.0000006 47.36,32.0000003 C49.92,32.0000003 51.2,30.7200003 51.2,28.1600003 L51.2,3.84000032 C51.2,1.28000032 49.92,3.23669398e-07 47.36,3.23669398e-07 Z" id="Rectangle-1" fill="#265697"></path>
            <path d="M47.8544752,16.16 C47.8565798,23.5960849 41.894271,29.6253676 34.5374496,29.627343 C27.1804779,29.6291665 21.2156134,23.6029229 21.2136591,16.166838 L21.2136591,16.16 C21.2117047,8.72406704 27.1740134,2.69448045 34.5305341,2.69250503 C41.8875059,2.69052961 47.852521,8.71707709 47.8544752,16.153162 L47.8544752,16.16 C47.8544752,16.16 47.8544752,16.1575687 47.8544752,16.16 Z" id="path2268" fill="#DFAC16"></path>
            <path d="M16.5800161,2.696 C9.26679194,2.74295419 3.3453745,8.75688938 3.3453745,16.16 C3.3453745,23.5919821 9.31294496,29.623848 16.6658577,29.623848 C20.1168108,29.623848 23.2624322,28.294543 25.6294658,26.1158078 C25.6293154,26.1158078 25.6290148,26.1155039 25.6284134,26.1152 L25.6312698,26.1152 C26.1159517,25.6687553 26.5680108,25.187057 26.9835382,24.673448 L24.2544966,24.673448 C23.8900832,24.2285229 23.558894,23.7649073 23.2613799,23.286552 L27.9680859,23.286552 C28.2543248,22.8235441 28.5135034,22.3427575 28.7435168,21.8448 L22.4842953,21.8448 C22.2709691,21.382552 22.0857557,20.909819 21.9276027,20.430248 L29.3008108,20.430248 C29.7452027,19.0881788 29.9863409,17.6523531 29.9863409,16.159848 C29.9863409,15.1703151 29.880204,14.2055508 29.6793557,13.276648 L21.5365799,13.276648 C21.637455,12.7985966 21.7647892,12.3263196 21.9166282,11.862248 L29.2925423,11.862248 C29.1276242,11.3683933 28.9360966,10.8871508 28.7182604,10.420648 L22.4835436,10.420648 C22.7084456,9.93499888 22.9632644,9.46256982 23.2478497,9.0064 L27.951098,9.0064 C27.6380993,8.50236426 27.2917262,8.02081789 26.9172403,7.56464803 L24.2949369,7.56464803 C24.7003919,7.08234189 25.1467382,6.62814749 25.6312698,6.20464803 C23.2640859,4.02560893 20.1175624,2.696 16.6658577,2.696 C16.6371436,2.696 16.6087302,2.69584804 16.5800161,2.696 C16.5800161,2.696 16.6087302,2.69584804 16.5800161,2.696 Z" id="path1350" fill="#BF3126"></path>
            <path d="M21.4558497,19.5879598 L21.633396,18.3694302 C21.5364295,18.3694302 21.3937611,18.4113698 21.2679302,18.4113698 C20.7742282,18.4113698 20.7198067,18.1460559 20.7512268,17.9498816 L21.1500671,15.4635888 L21.9003919,15.4635888 L22.0815463,14.1157452 L21.3740671,14.1157452 L21.5180886,13.2775598 L20.0998228,13.2775598 C20.068553,13.3091665 19.262604,17.9916693 19.262604,18.5618056 C19.262604,19.4059173 19.7315007,19.7818548 20.3926765,19.7757765 C20.9104322,19.7713698 21.3136322,19.6265564 21.4558497,19.5879598 C21.4558497,19.5879598 21.3136322,19.6265564 21.4558497,19.5879598 Z" id="path4157" fill="#FFFFFF"></path>
            <path d="M21.9052027,17.2647151 C21.9052027,19.2905832 23.2281557,19.7719777 24.3552215,19.7719777 C25.3955436,19.7719777 25.8533154,19.5369028 25.8533154,19.5369028 L26.1031732,18.1542614 C26.1031732,18.1542614 25.3118067,18.5066458 24.5971114,18.5066458 C23.0742121,18.5066458 23.3409074,17.3589274 23.3409074,17.3589274 L26.2231409,17.3589274 C26.2231409,17.3589274 26.4092564,16.4300246 26.4092564,16.0515039 C26.4092564,15.1069497 25.9441181,13.9560402 24.3869423,13.9560402 C22.9608591,13.9563441 21.9052027,15.5094793 21.9052027,17.2647151 C21.9052027,17.2647151 21.9052027,15.5094793 21.9052027,17.2647151 Z M24.3923544,15.2399106 C25.1927409,15.2399106 25.0451114,16.1490592 25.0451114,16.2226056 L23.4704966,16.2226056 C23.4704966,16.1286972 23.6193289,15.2399106 24.3923544,15.2399106 C24.3923544,15.2399106 23.6193289,15.2399106 24.3923544,15.2399106 Z" id="path4155" fill="#FFFFFF"></path>
            <path d="M33.3734013,19.587352 L33.6271677,18.0244916 C33.6271677,18.0244916 32.9312643,18.3771799 32.4536483,18.3771799 C31.4476027,18.3771799 31.044102,17.6006883 31.044102,16.7664536 C31.044102,15.0741274 31.9097341,14.1430972 32.8733853,14.1430972 C33.5960483,14.1430972 34.1760429,14.5532246 34.1760429,14.5532246 L34.4075597,13.0347352 C34.4075597,13.0347352 33.5474899,12.6829587 32.8102442,12.6829587 C31.1729396,12.6829587 29.5801342,14.1186324 29.5801342,16.8149274 C29.5801342,18.6028335 30.440204,19.7836782 32.1326819,19.7836782 C32.6112,19.7838302 33.3734013,19.587352 33.3734013,19.587352 Z" id="path4151" fill="#FFFFFF"></path>
            <path d="M13.6553879,13.9783777 C12.6828671,13.9783777 11.937353,14.2942927 11.937353,14.2942927 L11.7315436,15.5292335 C11.7315436,15.5292335 12.3468671,15.2765318 13.2769933,15.2765318 C13.8051221,15.2765318 14.1914846,15.3365542 14.1914846,15.7703866 C14.1914846,16.0338771 14.1441289,16.1311285 14.1441289,16.1311285 C14.1441289,16.1311285 13.727549,16.0958748 13.5346684,16.0958748 C12.3080805,16.0958748 11.0195544,16.6249832 11.0195544,18.22021 C11.0195544,19.4771844 11.8648913,19.7655955 12.3888108,19.7655955 C13.3894443,19.7655955 13.8207571,19.1093005 13.8437584,19.1073252 L13.797004,19.655124 L15.0458416,19.655124 L15.6029852,15.7071732 C15.6029852,14.0323218 14.1575087,13.9783777 13.6553879,13.9783777 Z M13.9592161,17.1928402 C13.9862765,17.4339933 13.8096322,18.5643888 12.9557262,18.5643888 C12.5152429,18.5643888 12.4006873,18.2243129 12.4006873,18.023124 C12.4006873,17.6307754 12.6116081,17.159714 13.6508779,17.159714 C13.8926174,17.1600179 13.9184752,17.1861542 13.9592161,17.1928402 C13.9592161,17.1928402 13.9184752,17.1861542 13.9592161,17.1928402 Z" id="path4149" fill="#FFFFFF"></path>
            <path d="M16.930298,19.736724 C17.2497611,19.736724 19.0760376,19.8187799 19.0760376,17.9140201 C19.0760376,16.1332559 17.3855141,16.4850324 17.3855141,15.7696268 C17.3855141,15.4134436 17.6610792,15.3013005 18.1647034,15.3013005 C18.3646497,15.3013005 19.1339168,15.3655777 19.1339168,15.3655777 L19.3128161,14.09979 C19.3128161,14.0999419 18.8149047,13.9871911 18.0042953,13.9871911 C16.9551034,13.9871911 15.8901262,14.4105386 15.8901262,15.8589765 C15.8901262,17.5002458 17.6658899,17.3355263 17.6658899,18.0269229 C17.6658899,18.4884112 17.1697826,18.5259441 16.7874792,18.5259441 C16.1258524,18.5259441 15.5300725,18.2964916 15.5279678,18.3074324 L15.3388456,19.5604559 C15.3731221,19.5710927 15.7405423,19.736724 16.930298,19.736724 C16.930298,19.736724 15.7405423,19.736724 16.930298,19.736724 Z" id="path4145" fill="#FFFFFF"></path>
            <path d="M45.1213744,12.8425117 L44.8154416,14.7612514 C44.8154416,14.7612514 44.2816,14.0159106 43.4458845,14.0159106 C42.146384,14.0159106 41.063216,15.5995888 41.063216,17.4192536 C41.063216,18.5938682 41.6409558,19.7447777 42.821992,19.7447777 C43.6715382,19.7447777 44.1425395,19.1460737 44.1425395,19.1460737 L44.0801504,19.6574034 L45.4596294,19.6574034 L46.5430979,12.8402324 L45.1213744,12.8425117 Z M44.4627542,16.5836514 C44.4627542,17.3408447 44.0918765,18.3522592 43.3229101,18.3522592 C42.812521,18.3522592 42.573337,17.9191866 42.573337,17.2394905 C42.573337,16.1280894 43.0671891,15.3947531 43.6903302,15.3947531 C44.2008698,15.3946011 44.4627542,15.7491129 44.4627542,16.5836514 C44.4627542,16.5836514 44.4627542,15.7491129 44.4627542,16.5836514 Z" id="path4139" fill="#FFFFFF"></path>
            <polygon id="path4133" fill="#FFFFFF" points="5.97609664 19.6633296 6.83947382 14.5166034 6.96620672 19.6633296 7.9433879 19.6633296 9.76620672 14.5166034 8.95875437 19.6633296 10.4106953 19.6633296 11.5288913 12.8370413 9.28362954 12.8370413 7.8853584 17.0253855 7.81259597 12.8370413 5.74292618 12.8370413 4.60864429 19.6633296 5.97609664 19.6633296 5.97609664 19.6633296"></polygon>
            <path d="M27.8276725,19.6727508 C28.240494,17.2998168 28.3170148,15.3730235 29.3021637,15.7257117 C29.4745987,14.8072939 29.6410201,14.4520223 29.8292403,14.0633207 C29.8292403,14.0633207 29.7409933,14.0446302 29.5557799,14.0446302 C28.9206121,14.0446302 28.4500618,14.9217162 28.4500618,14.9217162 L28.576494,14.1162011 L27.2559463,14.1162011 L26.3712215,19.6727508 L27.8276725,19.6727508 Z" id="path4131" fill="#FFFFFF"></path>
            <path d="M36.645936,13.9783777 C35.6734154,13.9783777 34.9279011,14.2942927 34.9279011,14.2942927 L34.7222422,15.5292335 C34.7222422,15.5292335 35.3375658,15.2765318 36.2676918,15.2765318 C36.7958208,15.2765318 37.1818826,15.3365542 37.1818826,15.7703866 C37.1818826,16.0338771 37.1348275,16.1311285 37.1348275,16.1311285 C37.1348275,16.1311285 36.7182474,16.0958748 36.5252166,16.0958748 C35.2987792,16.0958748 34.0102528,16.6249832 34.0102528,18.22021 C34.0102528,19.4771844 34.8554394,19.7655955 35.379359,19.7655955 C36.3799926,19.7655955 36.8113053,19.1093005 36.8341562,19.1073252 L36.7877024,19.655124 L38.0365402,19.655124 L38.5935334,15.7071732 C38.5936838,14.0323218 37.148057,13.9783777 36.645936,13.9783777 Z M36.9502154,17.1928402 C36.9772758,17.4339933 36.800481,18.5643888 35.9462742,18.5643888 C35.505791,18.5643888 35.391536,18.2243129 35.391536,18.023124 C35.391536,17.6307754 35.602457,17.159714 36.6415763,17.159714 C36.8833158,17.1600179 36.9090234,17.1861542 36.9502154,17.1928402 C36.9502154,17.1928402 36.9090234,17.1861542 36.9502154,17.1928402 Z" id="path4149_1_" fill="#FFFFFF"></path>
            <path d="M39.7349562,19.6727508 C40.147928,17.2998168 40.224449,15.3730235 41.2092973,15.7257117 C41.3820326,14.8072939 41.5486045,14.4520223 41.7366742,14.0633207 C41.7366742,14.0633207 41.6484275,14.0446302 41.4632141,14.0446302 C40.8280461,14.0446302 40.3574957,14.9217162 40.3574957,14.9217162 L40.483928,14.1162011 L39.1633805,14.1162011 L38.2786557,19.6727508 L39.7349562,19.6727508 Z" id="path4131_1_" fill="#FFFFFF"></path>
        </g>
    </g>
</svg>